<svg width="18" height="23" viewBox="0 0 18 23" fill="none" xmlns="http://www.w3.org/2000/svg">
<path d="M0.56717 12.5849C0.701791 13.7689 1.80775 14.608 2.99933 14.608L8.94961 14.608C8.44394 15.5135 8.17251 18.0746 8.18454 19.1207C8.2045 20.8525 9.63861 22.2402 11.3704 22.2402L12.0002 22.2402C12.422 22.2402 12.7634 21.8989 12.7634 21.477C12.7634 19.7121 13.4507 16.5265 14.7467 15.2304C15.6191 14.358 16.3649 14.0419 17.3428 13.5532L17.3428 2.10109C15.8456 1.60206 13.9447 0.870052 11.0472 0.870052L6.05463 0.870051C4.40958 0.870051 3.12837 2.39364 3.76582 4.0034C2.79463 4.26797 2.07842 5.15867 2.07842 6.21258C2.07842 6.51001 2.1358 6.79469 2.23939 7.05631C0.602767 7.50222 0.000350157 9.52306 1.13627 10.7919C0.718955 11.2581 0.488814 11.8959 0.56717 12.5849Z" fill="white"/>
</svg>
